<mxfile host="app.diagrams.net" modified="2022-09-23T19:55:46.807Z" agent="5.0 (Windows NT 10.0; Win64; x64) AppleWebKit/537.36 (KHTML, like Gecko) Chrome/105.0.0.0 Safari/537.36" etag="JPoWRB_vh0L0oUcOHaqE" version="20.3.6" type="github">
  <diagram id="C4_czdDHoemd65bDiTMe" name="Página-1">
    <mxGraphModel dx="1695" dy="1849" grid="1" gridSize="10" guides="1" tooltips="1" connect="1" arrows="1" fold="1" page="1" pageScale="1" pageWidth="827" pageHeight="1169" math="0" shadow="0">
      <root>
        <mxCell id="0" />
        <mxCell id="1" parent="0" />
        <mxCell id="oghLmfCXp2eNQxz2ITjJ-26" style="edgeStyle=orthogonalEdgeStyle;rounded=0;orthogonalLoop=1;jettySize=auto;html=1;" edge="1" parent="1" source="oghLmfCXp2eNQxz2ITjJ-1" target="oghLmfCXp2eNQxz2ITjJ-13">
          <mxGeometry relative="1" as="geometry">
            <Array as="points">
              <mxPoint x="410" y="153" />
              <mxPoint x="410" y="153" />
            </Array>
          </mxGeometry>
        </mxCell>
        <mxCell id="oghLmfCXp2eNQxz2ITjJ-39" style="edgeStyle=orthogonalEdgeStyle;rounded=0;orthogonalLoop=1;jettySize=auto;html=1;dashed=1;" edge="1" parent="1" source="oghLmfCXp2eNQxz2ITjJ-1" target="oghLmfCXp2eNQxz2ITjJ-31">
          <mxGeometry relative="1" as="geometry">
            <Array as="points">
              <mxPoint x="240" y="-34" />
            </Array>
          </mxGeometry>
        </mxCell>
        <mxCell id="oghLmfCXp2eNQxz2ITjJ-1" value="Empresa" style="swimlane;fontStyle=1;align=center;verticalAlign=top;childLayout=stackLayout;horizontal=1;startSize=26;horizontalStack=0;resizeParent=1;resizeParentMax=0;resizeLast=0;collapsible=1;marginBottom=0;" vertex="1" parent="1">
          <mxGeometry x="140" y="97" width="260" height="138" as="geometry" />
        </mxCell>
        <mxCell id="oghLmfCXp2eNQxz2ITjJ-27" value="- services: List&lt;ServiceComposite&gt;" style="text;strokeColor=none;fillColor=none;align=left;verticalAlign=top;spacingLeft=4;spacingRight=4;overflow=hidden;rotatable=0;points=[[0,0.5],[1,0.5]];portConstraint=eastwest;" vertex="1" parent="oghLmfCXp2eNQxz2ITjJ-1">
          <mxGeometry y="26" width="260" height="26" as="geometry" />
        </mxCell>
        <mxCell id="oghLmfCXp2eNQxz2ITjJ-2" value="- razonSocial: String" style="text;strokeColor=none;fillColor=none;align=left;verticalAlign=top;spacingLeft=4;spacingRight=4;overflow=hidden;rotatable=0;points=[[0,0.5],[1,0.5]];portConstraint=eastwest;" vertex="1" parent="oghLmfCXp2eNQxz2ITjJ-1">
          <mxGeometry y="52" width="260" height="26" as="geometry" />
        </mxCell>
        <mxCell id="oghLmfCXp2eNQxz2ITjJ-3" value="" style="line;strokeWidth=1;fillColor=none;align=left;verticalAlign=middle;spacingTop=-1;spacingLeft=3;spacingRight=3;rotatable=0;labelPosition=right;points=[];portConstraint=eastwest;strokeColor=inherit;" vertex="1" parent="oghLmfCXp2eNQxz2ITjJ-1">
          <mxGeometry y="78" width="260" height="8" as="geometry" />
        </mxCell>
        <mxCell id="oghLmfCXp2eNQxz2ITjJ-30" value="+ mostrarService(): void" style="text;strokeColor=none;fillColor=none;align=left;verticalAlign=top;spacingLeft=4;spacingRight=4;overflow=hidden;rotatable=0;points=[[0,0.5],[1,0.5]];portConstraint=eastwest;" vertex="1" parent="oghLmfCXp2eNQxz2ITjJ-1">
          <mxGeometry y="86" width="260" height="26" as="geometry" />
        </mxCell>
        <mxCell id="oghLmfCXp2eNQxz2ITjJ-4" value="+ addService(String codigo):ServiceComposite " style="text;strokeColor=none;fillColor=none;align=left;verticalAlign=top;spacingLeft=4;spacingRight=4;overflow=hidden;rotatable=0;points=[[0,0.5],[1,0.5]];portConstraint=eastwest;" vertex="1" parent="oghLmfCXp2eNQxz2ITjJ-1">
          <mxGeometry y="112" width="260" height="26" as="geometry" />
        </mxCell>
        <mxCell id="oghLmfCXp2eNQxz2ITjJ-23" style="edgeStyle=orthogonalEdgeStyle;rounded=0;orthogonalLoop=1;jettySize=auto;html=1;" edge="1" parent="1" source="oghLmfCXp2eNQxz2ITjJ-5" target="oghLmfCXp2eNQxz2ITjJ-13">
          <mxGeometry relative="1" as="geometry">
            <Array as="points">
              <mxPoint x="440" y="250" />
              <mxPoint x="600" y="250" />
            </Array>
          </mxGeometry>
        </mxCell>
        <mxCell id="oghLmfCXp2eNQxz2ITjJ-5" value="ServiceSimple" style="swimlane;fontStyle=1;align=center;verticalAlign=top;childLayout=stackLayout;horizontal=1;startSize=20;horizontalStack=0;resizeParent=1;resizeParentMax=0;resizeLast=0;collapsible=1;marginBottom=0;" vertex="1" parent="1">
          <mxGeometry x="340" y="300" width="180" height="80" as="geometry" />
        </mxCell>
        <mxCell id="oghLmfCXp2eNQxz2ITjJ-20" value="- precioBase: Double" style="text;strokeColor=none;fillColor=none;align=left;verticalAlign=top;spacingLeft=4;spacingRight=4;overflow=hidden;rotatable=0;points=[[0,0.5],[1,0.5]];portConstraint=eastwest;" vertex="1" parent="oghLmfCXp2eNQxz2ITjJ-5">
          <mxGeometry y="20" width="180" height="26" as="geometry" />
        </mxCell>
        <mxCell id="oghLmfCXp2eNQxz2ITjJ-6" value="- necesitaColocacion: boolean" style="text;strokeColor=none;fillColor=none;align=left;verticalAlign=top;spacingLeft=4;spacingRight=4;overflow=hidden;rotatable=0;points=[[0,0.5],[1,0.5]];portConstraint=eastwest;" vertex="1" parent="oghLmfCXp2eNQxz2ITjJ-5">
          <mxGeometry y="46" width="180" height="26" as="geometry" />
        </mxCell>
        <mxCell id="oghLmfCXp2eNQxz2ITjJ-7" value="" style="line;strokeWidth=1;fillColor=none;align=left;verticalAlign=middle;spacingTop=-1;spacingLeft=3;spacingRight=3;rotatable=0;labelPosition=right;points=[];portConstraint=eastwest;strokeColor=inherit;" vertex="1" parent="oghLmfCXp2eNQxz2ITjJ-5">
          <mxGeometry y="72" width="180" height="8" as="geometry" />
        </mxCell>
        <mxCell id="oghLmfCXp2eNQxz2ITjJ-22" style="edgeStyle=orthogonalEdgeStyle;rounded=0;orthogonalLoop=1;jettySize=auto;html=1;" edge="1" parent="1" source="oghLmfCXp2eNQxz2ITjJ-9" target="oghLmfCXp2eNQxz2ITjJ-13">
          <mxGeometry relative="1" as="geometry">
            <Array as="points">
              <mxPoint x="710" y="250" />
              <mxPoint x="600" y="250" />
            </Array>
          </mxGeometry>
        </mxCell>
        <mxCell id="oghLmfCXp2eNQxz2ITjJ-25" style="edgeStyle=orthogonalEdgeStyle;rounded=0;orthogonalLoop=1;jettySize=auto;html=1;" edge="1" parent="1" source="oghLmfCXp2eNQxz2ITjJ-9" target="oghLmfCXp2eNQxz2ITjJ-13">
          <mxGeometry relative="1" as="geometry">
            <Array as="points">
              <mxPoint x="760" y="153" />
            </Array>
          </mxGeometry>
        </mxCell>
        <mxCell id="oghLmfCXp2eNQxz2ITjJ-9" value="ServiceCombinado" style="swimlane;fontStyle=1;align=center;verticalAlign=top;childLayout=stackLayout;horizontal=1;startSize=26;horizontalStack=0;resizeParent=1;resizeParentMax=0;resizeLast=0;collapsible=1;marginBottom=0;" vertex="1" parent="1">
          <mxGeometry x="640" y="300" width="200" height="86" as="geometry" />
        </mxCell>
        <mxCell id="oghLmfCXp2eNQxz2ITjJ-24" value="- services: List&lt;ServiceComposite&gt;" style="text;strokeColor=none;fillColor=none;align=left;verticalAlign=top;spacingLeft=4;spacingRight=4;overflow=hidden;rotatable=0;points=[[0,0.5],[1,0.5]];portConstraint=eastwest;" vertex="1" parent="oghLmfCXp2eNQxz2ITjJ-9">
          <mxGeometry y="26" width="200" height="26" as="geometry" />
        </mxCell>
        <mxCell id="oghLmfCXp2eNQxz2ITjJ-21" value="- descuento: intiger" style="text;strokeColor=none;fillColor=none;align=left;verticalAlign=top;spacingLeft=4;spacingRight=4;overflow=hidden;rotatable=0;points=[[0,0.5],[1,0.5]];portConstraint=eastwest;" vertex="1" parent="oghLmfCXp2eNQxz2ITjJ-9">
          <mxGeometry y="52" width="200" height="26" as="geometry" />
        </mxCell>
        <mxCell id="oghLmfCXp2eNQxz2ITjJ-11" value="" style="line;strokeWidth=1;fillColor=none;align=left;verticalAlign=middle;spacingTop=-1;spacingLeft=3;spacingRight=3;rotatable=0;labelPosition=right;points=[];portConstraint=eastwest;strokeColor=inherit;" vertex="1" parent="oghLmfCXp2eNQxz2ITjJ-9">
          <mxGeometry y="78" width="200" height="8" as="geometry" />
        </mxCell>
        <mxCell id="oghLmfCXp2eNQxz2ITjJ-13" value="&lt;&lt;abstract&gt;&gt;&#xa;ServiceComposite" style="swimlane;fontStyle=1;align=center;verticalAlign=top;childLayout=stackLayout;horizontal=1;startSize=40;horizontalStack=0;resizeParent=1;resizeParentMax=0;resizeLast=0;collapsible=1;marginBottom=0;" vertex="1" parent="1">
          <mxGeometry x="520" y="90" width="160" height="126" as="geometry" />
        </mxCell>
        <mxCell id="oghLmfCXp2eNQxz2ITjJ-17" value="-nombre: String" style="text;strokeColor=none;fillColor=none;align=left;verticalAlign=top;spacingLeft=4;spacingRight=4;overflow=hidden;rotatable=0;points=[[0,0.5],[1,0.5]];portConstraint=eastwest;" vertex="1" parent="oghLmfCXp2eNQxz2ITjJ-13">
          <mxGeometry y="40" width="160" height="26" as="geometry" />
        </mxCell>
        <mxCell id="oghLmfCXp2eNQxz2ITjJ-18" value="-descripcion: String" style="text;strokeColor=none;fillColor=none;align=left;verticalAlign=top;spacingLeft=4;spacingRight=4;overflow=hidden;rotatable=0;points=[[0,0.5],[1,0.5]];portConstraint=eastwest;" vertex="1" parent="oghLmfCXp2eNQxz2ITjJ-13">
          <mxGeometry y="66" width="160" height="26" as="geometry" />
        </mxCell>
        <mxCell id="oghLmfCXp2eNQxz2ITjJ-15" value="" style="line;strokeWidth=1;fillColor=none;align=left;verticalAlign=middle;spacingTop=-1;spacingLeft=3;spacingRight=3;rotatable=0;labelPosition=right;points=[];portConstraint=eastwest;strokeColor=inherit;" vertex="1" parent="oghLmfCXp2eNQxz2ITjJ-13">
          <mxGeometry y="92" width="160" height="8" as="geometry" />
        </mxCell>
        <mxCell id="oghLmfCXp2eNQxz2ITjJ-16" value="+ abstract calcularPrecio(): Double" style="text;strokeColor=none;fillColor=none;align=left;verticalAlign=top;spacingLeft=4;spacingRight=4;overflow=hidden;rotatable=0;points=[[0,0.5],[1,0.5]];portConstraint=eastwest;" vertex="1" parent="oghLmfCXp2eNQxz2ITjJ-13">
          <mxGeometry y="100" width="160" height="26" as="geometry" />
        </mxCell>
        <mxCell id="oghLmfCXp2eNQxz2ITjJ-28" value="N" style="text;html=1;align=center;verticalAlign=middle;resizable=0;points=[];autosize=1;strokeColor=none;fillColor=none;" vertex="1" parent="1">
          <mxGeometry x="685" y="125" width="30" height="30" as="geometry" />
        </mxCell>
        <mxCell id="oghLmfCXp2eNQxz2ITjJ-29" value="N" style="text;html=1;align=center;verticalAlign=middle;resizable=0;points=[];autosize=1;strokeColor=none;fillColor=none;" vertex="1" parent="1">
          <mxGeometry x="490" y="125" width="30" height="30" as="geometry" />
        </mxCell>
        <mxCell id="oghLmfCXp2eNQxz2ITjJ-38" style="edgeStyle=orthogonalEdgeStyle;rounded=0;orthogonalLoop=1;jettySize=auto;html=1;dashed=1;" edge="1" parent="1" source="oghLmfCXp2eNQxz2ITjJ-31" target="oghLmfCXp2eNQxz2ITjJ-13">
          <mxGeometry relative="1" as="geometry">
            <Array as="points">
              <mxPoint x="600" y="-34" />
            </Array>
          </mxGeometry>
        </mxCell>
        <mxCell id="oghLmfCXp2eNQxz2ITjJ-31" value="FactoryServiceComposite" style="swimlane;fontStyle=1;align=center;verticalAlign=top;childLayout=stackLayout;horizontal=1;startSize=26;horizontalStack=0;resizeParent=1;resizeParentMax=0;resizeLast=0;collapsible=1;marginBottom=0;" vertex="1" parent="1">
          <mxGeometry x="330" y="-90" width="240" height="112" as="geometry" />
        </mxCell>
        <mxCell id="oghLmfCXp2eNQxz2ITjJ-35" value="- instance : FactoryServiceComposite" style="text;strokeColor=none;fillColor=none;align=left;verticalAlign=top;spacingLeft=4;spacingRight=4;overflow=hidden;rotatable=0;points=[[0,0.5],[1,0.5]];portConstraint=eastwest;" vertex="1" parent="oghLmfCXp2eNQxz2ITjJ-31">
          <mxGeometry y="26" width="240" height="26" as="geometry" />
        </mxCell>
        <mxCell id="oghLmfCXp2eNQxz2ITjJ-33" value="" style="line;strokeWidth=1;fillColor=none;align=left;verticalAlign=middle;spacingTop=-1;spacingLeft=3;spacingRight=3;rotatable=0;labelPosition=right;points=[];portConstraint=eastwest;strokeColor=inherit;" vertex="1" parent="oghLmfCXp2eNQxz2ITjJ-31">
          <mxGeometry y="52" width="240" height="8" as="geometry" />
        </mxCell>
        <mxCell id="oghLmfCXp2eNQxz2ITjJ-36" value="- FactoryServiceComposite()" style="text;strokeColor=none;fillColor=none;align=left;verticalAlign=top;spacingLeft=4;spacingRight=4;overflow=hidden;rotatable=0;points=[[0,0.5],[1,0.5]];portConstraint=eastwest;" vertex="1" parent="oghLmfCXp2eNQxz2ITjJ-31">
          <mxGeometry y="60" width="240" height="26" as="geometry" />
        </mxCell>
        <mxCell id="oghLmfCXp2eNQxz2ITjJ-34" value="+ getInstance(): FactoryServiceComposite" style="text;strokeColor=none;fillColor=none;align=left;verticalAlign=top;spacingLeft=4;spacingRight=4;overflow=hidden;rotatable=0;points=[[0,0.5],[1,0.5]];portConstraint=eastwest;" vertex="1" parent="oghLmfCXp2eNQxz2ITjJ-31">
          <mxGeometry y="86" width="240" height="26" as="geometry" />
        </mxCell>
      </root>
    </mxGraphModel>
  </diagram>
</mxfile>
